<?xml version="1.0" encoding="UTF-8" standalone="no"?><svg xmlns="http://www.w3.org/2000/svg" xmlns:xlink="http://www.w3.org/1999/xlink" contentScriptType="application/ecmascript" contentStyleType="text/css" height="942px" preserveAspectRatio="none" style="width:686px;height:942px;" version="1.1" viewBox="0 0 686 942" width="686.4px" zoomAndPan="magnify"><defs><filter height="300%" id="f2rj79wpm8jd5" width="300%" x="-1" y="-1"><feGaussianBlur result="blurOut" stdDeviation="2.4"/><feColorMatrix in="blurOut" result="blurOut2" type="matrix" values="0 0 0 0 0 0 0 0 0 0 0 0 0 0 0 0 0 0 .4 0"/><feOffset dx="4.8" dy="4.8" in="blurOut2" result="blurOut3"/><feBlend in="SourceGraphic" in2="blurOut3" mode="normal"/></filter></defs><g><text fill="#000000" font-family="sans-serif" font-size="21.6" lengthAdjust="spacingAndGlyphs" textLength="201.6" x="250.2" y="22.4227">Cars - Class diagram</text><!--MD5=[7047f7b2ca5ebab6cfe1df6e48d82f51]
cluster cities--><polygon fill="#FFFFFF" filter="url(#f2rj79wpm8jd5)" points="321,56.5688,373.8,56.5688,382.2,84.9,660.6,84.9,660.6,365.5687,321,365.5687,321,56.5688" style="stroke: #000000; stroke-width: 1.7999999999999998;"/><line style="stroke: #000000; stroke-width: 1.7999999999999998;" x1="321" x2="382.2" y1="84.9" y2="84.9"/><text fill="#000000" font-family="sans-serif" font-size="16.8" font-weight="bold" lengthAdjust="spacingAndGlyphs" textLength="45.6" x="325.8" y="76.4086">cities</text><!--MD5=[0c4a738b3201a23a254af68352446157]
cluster auth--><polygon fill="#FFFFFF" filter="url(#f2rj79wpm8jd5)" points="117,643.9688,161.4,643.9688,169.8,672.3,261,672.3,261,928.3688,117,928.3688,117,643.9688" style="stroke: #000000; stroke-width: 1.7999999999999998;"/><line style="stroke: #000000; stroke-width: 1.7999999999999998;" x1="117" x2="169.8" y1="672.3" y2="672.3"/><text fill="#000000" font-family="sans-serif" font-size="16.8" font-weight="bold" lengthAdjust="spacingAndGlyphs" textLength="37.2" x="121.8" y="663.8086">auth</text><!--MD5=[deb4e1f6eb1e3c1256fdb830f96abfbb]
class Country--><rect fill="#F8E7C0" filter="url(#f2rj79wpm8jd5)" height="74.2031" id="Country" style="stroke: #2F4F4F; stroke-width: 1.7999999999999998;" width="152.4" x="488.4" y="108.1688"/><ellipse cx="535.02" cy="127.3687" fill="#ADD1B2" rx="13.2" ry="13.2" style="stroke: #2F4F4F; stroke-width: 1.2;"/><path d="M537.42,123.1687 Q537.6638,122.5688 537.945,122.2688 Q538.2263,121.9688 538.545,121.9688 Q539.1075,121.9688 539.4638,122.3062 Q539.82,122.6438 539.82,123.4312 L539.82,125.3062 Q539.82,126.0938 539.4825,126.4312 Q539.145,126.7688 538.62,126.7688 Q538.1513,126.7688 537.8513,126.5625 Q537.5513,126.3562 537.42,125.8125 Q537.3638,125.4375 537.1575,125.2312 Q536.7825,124.8375 536.1075,124.6125 Q535.4325,124.3687 534.7575,124.3687 Q533.9138,124.3687 533.2013,124.7063 Q532.5075,125.0437 531.9638,125.7937 Q531.42,126.5437 531.42,127.575 L531.42,128.6813 Q531.42,129.9188 532.4325,130.7438 Q533.445,131.5688 535.245,131.5688 Q536.3138,131.5688 537.0638,131.325 Q537.495,131.1938 537.9825,130.7625 Q538.3013,130.5187 538.47,130.4438 Q538.6388,130.3688 538.845,130.3688 Q539.2388,130.3688 539.52,130.6875 Q539.82,130.9875 539.82,131.4188 Q539.82,131.8312 539.4075,132.3188 Q538.8075,133.0313 537.8513,133.425 Q536.595,133.9688 535.0575,133.9688 Q533.2575,133.9688 531.8138,133.2563 Q530.6513,132.6938 529.8263,131.475 Q529.02,130.2563 529.02,128.8125 L529.02,127.5 Q529.02,126 529.7325,124.6875 Q530.4638,123.375 531.72,122.6812 Q532.995,121.9688 534.42,121.9688 Q535.2825,121.9688 536.0325,122.2688 Q536.7825,122.5688 537.42,123.1687 Z "/><text fill="#000000" font-family="sans-serif" font-size="14.4" lengthAdjust="spacingAndGlyphs" textLength="50.4" x="558.18" y="133.2609">Country</text><line style="stroke: #2F4F4F; stroke-width: 1.7999999999999998;" x1="489.6" x2="639.6" y1="146.5688" y2="146.5688"/><ellipse cx="501.6" cy="159.7687" fill="none" rx="3.6" ry="3.6" style="stroke: #038048; stroke-width: 1.2;"/><text fill="#000000" font-family="sans-serif" font-size="13.2" lengthAdjust="spacingAndGlyphs" textLength="121.2" x="512.4" y="165.0715">language : Language</text><line style="stroke: #2F4F4F; stroke-width: 1.7999999999999998;" x1="489.6" x2="639.6" y1="172.7719" y2="172.7719"/><!--MD5=[bdb7a498ae268604f9dee9fee1851af7]
class Region--><rect fill="#F8E7C0" filter="url(#f2rj79wpm8jd5)" height="57.6" id="Region" style="stroke: #2F4F4F; stroke-width: 1.7999999999999998;" width="86.4" x="521.4" y="288.7688"/><ellipse cx="539.4" cy="307.9688" fill="#ADD1B2" rx="13.2" ry="13.2" style="stroke: #2F4F4F; stroke-width: 1.2;"/><path d="M541.8,303.7688 Q542.0437,303.1688 542.325,302.8688 Q542.6062,302.5687 542.925,302.5687 Q543.4875,302.5687 543.8438,302.9063 Q544.2,303.2438 544.2,304.0313 L544.2,305.9063 Q544.2,306.6937 543.8625,307.0313 Q543.525,307.3688 543,307.3688 Q542.5313,307.3688 542.2312,307.1625 Q541.9313,306.9563 541.8,306.4125 Q541.7438,306.0375 541.5375,305.8313 Q541.1625,305.4375 540.4875,305.2125 Q539.8125,304.9688 539.1375,304.9688 Q538.2937,304.9688 537.5813,305.3063 Q536.8875,305.6438 536.3438,306.3938 Q535.8,307.1438 535.8,308.175 L535.8,309.2813 Q535.8,310.5188 536.8125,311.3438 Q537.825,312.1688 539.625,312.1688 Q540.6938,312.1688 541.4438,311.925 Q541.875,311.7938 542.3625,311.3625 Q542.6813,311.1188 542.85,311.0438 Q543.0188,310.9688 543.225,310.9688 Q543.6188,310.9688 543.9,311.2875 Q544.2,311.5875 544.2,312.0188 Q544.2,312.4313 543.7875,312.9188 Q543.1875,313.6312 542.2312,314.025 Q540.975,314.5687 539.4375,314.5687 Q537.6375,314.5687 536.1938,313.8563 Q535.0313,313.2938 534.2063,312.075 Q533.4,310.8563 533.4,309.4125 L533.4,308.1 Q533.4,306.6 534.1125,305.2875 Q534.8438,303.975 536.1,303.2813 Q537.375,302.5687 538.8,302.5687 Q539.6625,302.5687 540.4125,302.8688 Q541.1625,303.1688 541.8,303.7688 Z "/><text fill="#000000" font-family="sans-serif" font-size="14.4" lengthAdjust="spacingAndGlyphs" textLength="48" x="556.2" y="313.8609">Region</text><line style="stroke: #2F4F4F; stroke-width: 1.7999999999999998;" x1="522.6" x2="606.6" y1="327.1688" y2="327.1688"/><line style="stroke: #2F4F4F; stroke-width: 1.7999999999999998;" x1="522.6" x2="606.6" y1="336.7688" y2="336.7688"/><!--MD5=[604575fdb45ee3504bf55618cb71a1d3]
class Language--><rect fill="#F8E7C0" filter="url(#f2rj79wpm8jd5)" height="90.8062" id="Language" style="stroke: #2F4F4F; stroke-width: 1.7999999999999998;" width="105.6" x="340.2" y="99.7688"/><ellipse cx="358.2" cy="118.9688" fill="#EB937F" rx="13.2" ry="13.2" style="stroke: #2F4F4F; stroke-width: 1.2;"/><path d="M356.4,120.1687 L356.4,122.5688 L361.2,122.5688 L361.2,121.3687 L361.2,120.7875 L361.95,120.1687 L362.4,120.1687 L362.85,120.1687 L363.6,120.7875 L363.6,121.3687 L363.6,124.9688 L354,124.9688 L353.4188,124.9688 L352.8,124.2188 L352.8,123.7688 L352.8,123.3188 L353.4188,122.5688 L354,122.5688 L354,122.5688 L354,115.3687 L354,115.3687 L353.4188,115.3687 L352.8,114.6187 L352.8,114.1688 L352.8,113.7188 L353.4188,112.9688 L354,112.9688 L363.6,112.9688 L363.6,116.5688 L363.6,117.15 L362.85,117.7688 L362.4,117.7688 L361.95,117.7688 L361.2,117.15 L361.2,116.5688 L361.2,115.3687 L356.4,115.3687 L356.4,117.7688 L357.6,117.7688 L357.6,117.1875 L357.6,117.1875 L358.35,116.5688 L358.8,116.5688 L359.25,116.5688 L360,117.1875 L360,117.7688 L360,120.1687 L360,120.75 L359.25,121.3687 L359.25,121.3687 L358.8,121.3687 L358.35,121.3687 L357.6,120.75 L357.6,120.75 L357.6,120.1687 L356.4,120.1687 Z "/><text fill="#000000" font-family="sans-serif" font-size="14.4" lengthAdjust="spacingAndGlyphs" textLength="67.2" x="375" y="124.8609">Language</text><line style="stroke: #2F4F4F; stroke-width: 1.7999999999999998;" x1="341.4" x2="444.6" y1="138.1688" y2="138.1688"/><text fill="#000000" font-family="sans-serif" font-size="13.2" lengthAdjust="spacingAndGlyphs" textLength="15.6" x="347.4" y="156.6715">FR</text><text fill="#000000" font-family="sans-serif" font-size="13.2" lengthAdjust="spacingAndGlyphs" textLength="15.6" x="347.4" y="173.2746">EN</text><line style="stroke: #2F4F4F; stroke-width: 1.7999999999999998;" x1="341.4" x2="444.6" y1="180.975" y2="180.975"/><!--MD5=[354e8650cefe639d77b0834953981666]
class Utilisateur--><rect fill="#F8E7C0" filter="url(#f2rj79wpm8jd5)" height="90.8062" id="Utilisateur" style="stroke: #2F4F4F; stroke-width: 1.7999999999999998;" width="105.6" x="136.2" y="687.1687"/><ellipse cx="154.2" cy="706.3688" fill="#ADD1B2" rx="13.2" ry="13.2" style="stroke: #2F4F4F; stroke-width: 1.2;"/><path d="M156.6,702.1687 Q156.8438,701.5688 157.125,701.2688 Q157.4063,700.9688 157.725,700.9688 Q158.2875,700.9688 158.6437,701.3063 Q159,701.6438 159,702.4313 L159,704.3063 Q159,705.0938 158.6625,705.4313 Q158.325,705.7688 157.8,705.7688 Q157.3312,705.7688 157.0313,705.5625 Q156.7313,705.3562 156.6,704.8125 Q156.5438,704.4375 156.3375,704.2312 Q155.9625,703.8375 155.2875,703.6125 Q154.6125,703.3688 153.9375,703.3688 Q153.0938,703.3688 152.3813,703.7063 Q151.6875,704.0437 151.1437,704.7937 Q150.6,705.5437 150.6,706.575 L150.6,707.6813 Q150.6,708.9187 151.6125,709.7438 Q152.625,710.5688 154.425,710.5688 Q155.4938,710.5688 156.2438,710.325 Q156.675,710.1938 157.1625,709.7625 Q157.4813,709.5188 157.65,709.4438 Q157.8188,709.3688 158.025,709.3688 Q158.4188,709.3688 158.7,709.6875 Q159,709.9875 159,710.4187 Q159,710.8313 158.5875,711.3188 Q157.9875,712.0313 157.0313,712.425 Q155.775,712.9688 154.2375,712.9688 Q152.4375,712.9688 150.9938,712.2563 Q149.8312,711.6938 149.0063,710.475 Q148.2,709.2563 148.2,707.8125 L148.2,706.5 Q148.2,705 148.9125,703.6875 Q149.6437,702.375 150.9,701.6813 Q152.175,700.9688 153.6,700.9688 Q154.4625,700.9688 155.2125,701.2688 Q155.9625,701.5688 156.6,702.1687 Z "/><text fill="#000000" font-family="sans-serif" font-size="14.4" lengthAdjust="spacingAndGlyphs" textLength="67.2" x="171" y="712.2609">Utilisateur</text><line style="stroke: #2F4F4F; stroke-width: 1.7999999999999998;" x1="137.4" x2="240.6" y1="725.5688" y2="725.5688"/><ellipse cx="149.4" cy="738.7688" fill="none" rx="3.6" ry="3.6" style="stroke: #038048; stroke-width: 1.2;"/><text fill="#000000" font-family="sans-serif" font-size="13.2" lengthAdjust="spacingAndGlyphs" textLength="57.6" x="160.2" y="744.0715">username</text><ellipse cx="149.4" cy="755.3719" fill="none" rx="3.6" ry="3.6" style="stroke: #038048; stroke-width: 1.2;"/><text fill="#000000" font-family="sans-serif" font-size="13.2" lengthAdjust="spacingAndGlyphs" textLength="60" x="160.2" y="760.6746">password</text><line style="stroke: #2F4F4F; stroke-width: 1.7999999999999998;" x1="137.4" x2="240.6" y1="768.375" y2="768.375"/><!--MD5=[a3638c1e5b65d287ecad7f06f5c0f212]
class Role--><rect fill="#F8E7C0" filter="url(#f2rj79wpm8jd5)" height="57.6" id="Role" style="stroke: #2F4F4F; stroke-width: 1.7999999999999998;" width="69.6" x="154.2" y="851.5688"/><ellipse cx="172.2" cy="870.7688" fill="#ADD1B2" rx="13.2" ry="13.2" style="stroke: #2F4F4F; stroke-width: 1.2;"/><path d="M174.6,866.5688 Q174.8438,865.9688 175.125,865.6687 Q175.4063,865.3688 175.725,865.3688 Q176.2875,865.3688 176.6437,865.7063 Q177,866.0437 177,866.8313 L177,868.7063 Q177,869.4938 176.6625,869.8313 Q176.325,870.1687 175.8,870.1687 Q175.3312,870.1687 175.0313,869.9625 Q174.7313,869.7563 174.6,869.2125 Q174.5438,868.8375 174.3375,868.6313 Q173.9625,868.2375 173.2875,868.0125 Q172.6125,867.7688 171.9375,867.7688 Q171.0938,867.7688 170.3813,868.1062 Q169.6875,868.4438 169.1437,869.1938 Q168.6,869.9438 168.6,870.975 L168.6,872.0813 Q168.6,873.3188 169.6125,874.1438 Q170.625,874.9688 172.425,874.9688 Q173.4938,874.9688 174.2438,874.725 Q174.675,874.5938 175.1625,874.1625 Q175.4813,873.9187 175.65,873.8438 Q175.8188,873.7688 176.025,873.7688 Q176.4188,873.7688 176.7,874.0875 Q177,874.3875 177,874.8188 Q177,875.2312 176.5875,875.7188 Q175.9875,876.4313 175.0313,876.825 Q173.775,877.3688 172.2375,877.3688 Q170.4375,877.3688 168.9938,876.6563 Q167.8312,876.0938 167.0063,874.875 Q166.2,873.6563 166.2,872.2125 L166.2,870.9 Q166.2,869.4 166.9125,868.0875 Q167.6437,866.775 168.9,866.0813 Q170.175,865.3688 171.6,865.3688 Q172.4625,865.3688 173.2125,865.6687 Q173.9625,865.9688 174.6,866.5688 Z "/><text fill="#000000" font-family="sans-serif" font-size="14.4" lengthAdjust="spacingAndGlyphs" textLength="31.2" x="189" y="876.6609">Role</text><line style="stroke: #2F4F4F; stroke-width: 1.7999999999999998;" x1="155.4" x2="222.6" y1="889.9688" y2="889.9688"/><line style="stroke: #2F4F4F; stroke-width: 1.7999999999999998;" x1="155.4" x2="222.6" y1="899.5688" y2="899.5688"/><!--MD5=[1d3308a050e4b472ad871965582028ae]
class Voiture--><rect fill="#F8E7C0" filter="url(#f2rj79wpm8jd5)" height="140.6156" id="Voiture" style="stroke: #2F4F4F; stroke-width: 1.7999999999999998;" width="219.6" x="7.2" y="75.1688"/><ellipse cx="89.1" cy="94.3687" fill="#ADD1B2" rx="13.2" ry="13.2" style="stroke: #2F4F4F; stroke-width: 1.2;"/><path d="M91.5,90.1688 Q91.7437,89.5688 92.025,89.2688 Q92.3062,88.9688 92.625,88.9688 Q93.1875,88.9688 93.5438,89.3062 Q93.9,89.6438 93.9,90.4312 L93.9,92.3062 Q93.9,93.0938 93.5625,93.4312 Q93.225,93.7688 92.7,93.7688 Q92.2313,93.7688 91.9312,93.5625 Q91.6313,93.3563 91.5,92.8125 Q91.4438,92.4375 91.2375,92.2313 Q90.8625,91.8375 90.1875,91.6125 Q89.5125,91.3687 88.8375,91.3687 Q87.9937,91.3687 87.2813,91.7063 Q86.5875,92.0438 86.0438,92.7938 Q85.5,93.5438 85.5,94.575 L85.5,95.6812 Q85.5,96.9188 86.5125,97.7437 Q87.525,98.5688 89.325,98.5688 Q90.3938,98.5688 91.1438,98.325 Q91.575,98.1938 92.0625,97.7625 Q92.3813,97.5188 92.55,97.4438 Q92.7188,97.3687 92.925,97.3687 Q93.3188,97.3687 93.6,97.6875 Q93.9,97.9875 93.9,98.4188 Q93.9,98.8313 93.4875,99.3188 Q92.8875,100.0313 91.9312,100.425 Q90.675,100.9688 89.1375,100.9688 Q87.3375,100.9688 85.8938,100.2563 Q84.7313,99.6938 83.9063,98.475 Q83.1,97.2563 83.1,95.8125 L83.1,94.5 Q83.1,93 83.8125,91.6875 Q84.5438,90.375 85.8,89.6812 Q87.075,88.9688 88.5,88.9688 Q89.3625,88.9688 90.1125,89.2688 Q90.8625,89.5688 91.5,90.1688 Z "/><text fill="#000000" font-family="sans-serif" font-size="14.4" lengthAdjust="spacingAndGlyphs" textLength="45.6" x="113.7" y="100.2609">Voiture</text><line style="stroke: #2F4F4F; stroke-width: 1.7999999999999998;" x1="8.4" x2="225.6" y1="113.5688" y2="113.5688"/><ellipse cx="20.4" cy="126.7688" fill="none" rx="3.6" ry="3.6" style="stroke: #038048; stroke-width: 1.2;"/><text fill="#000000" font-family="sans-serif" font-size="13.2" lengthAdjust="spacingAndGlyphs" textLength="33.6" x="31.2" y="132.0715">id : int</text><ellipse cx="20.4" cy="143.3719" fill="none" rx="3.6" ry="3.6" style="stroke: #038048; stroke-width: 1.2;"/><text fill="#000000" font-family="sans-serif" font-size="13.2" lengthAdjust="spacingAndGlyphs" textLength="78" x="31.2" y="148.6746">brand : String</text><ellipse cx="20.4" cy="159.975" fill="none" rx="3.6" ry="3.6" style="stroke: #038048; stroke-width: 1.2;"/><text fill="#000000" font-family="sans-serif" font-size="13.2" lengthAdjust="spacingAndGlyphs" textLength="78" x="31.2" y="165.2777">model : String</text><ellipse cx="20.4" cy="176.5781" fill="none" rx="3.6" ry="3.6" style="stroke: #038048; stroke-width: 1.2;"/><text fill="#000000" font-family="sans-serif" font-size="13.2" lengthAdjust="spacingAndGlyphs" textLength="73.2" x="31.2" y="181.8809">mpg : double</text><line style="stroke: #2F4F4F; stroke-width: 1.7999999999999998;" x1="8.4" x2="225.6" y1="189.5812" y2="189.5812"/><text fill="#000000" font-family="sans-serif" font-size="13.2" lengthAdjust="spacingAndGlyphs" textLength="205.2" x="14.4" y="208.084">getLitersPer100Kilometers() : String</text><!--MD5=[86f1e06545808478ad7c68c65a090e07]
class Roue--><rect fill="#F8E7C0" filter="url(#f2rj79wpm8jd5)" height="57.6" id="Roue" style="stroke: #2F4F4F; stroke-width: 1.7999999999999998;" width="74.4" x="21" y="438.7688"/><ellipse cx="39" cy="457.9688" fill="#ADD1B2" rx="13.2" ry="13.2" style="stroke: #2F4F4F; stroke-width: 1.2;"/><path d="M41.4,453.7688 Q41.6438,453.1688 41.925,452.8688 Q42.2063,452.5687 42.525,452.5687 Q43.0875,452.5687 43.4438,452.9063 Q43.8,453.2438 43.8,454.0313 L43.8,455.9063 Q43.8,456.6937 43.4625,457.0313 Q43.125,457.3688 42.6,457.3688 Q42.1313,457.3688 41.8313,457.1625 Q41.5313,456.9563 41.4,456.4125 Q41.3438,456.0375 41.1375,455.8313 Q40.7625,455.4375 40.0875,455.2125 Q39.4125,454.9688 38.7375,454.9688 Q37.8938,454.9688 37.1813,455.3063 Q36.4875,455.6438 35.9438,456.3938 Q35.4,457.1438 35.4,458.175 L35.4,459.2813 Q35.4,460.5188 36.4125,461.3438 Q37.425,462.1688 39.225,462.1688 Q40.2937,462.1688 41.0437,461.925 Q41.475,461.7938 41.9625,461.3625 Q42.2813,461.1188 42.45,461.0438 Q42.6188,460.9688 42.825,460.9688 Q43.2188,460.9688 43.5,461.2875 Q43.8,461.5875 43.8,462.0187 Q43.8,462.4313 43.3875,462.9188 Q42.7875,463.6312 41.8313,464.025 Q40.575,464.5687 39.0375,464.5687 Q37.2375,464.5687 35.7937,463.8563 Q34.6313,463.2938 33.8063,462.075 Q33,460.8563 33,459.4125 L33,458.1 Q33,456.6 33.7125,455.2875 Q34.4438,453.975 35.7,453.2813 Q36.975,452.5687 38.4,452.5687 Q39.2625,452.5687 40.0125,452.8688 Q40.7625,453.1688 41.4,453.7688 Z "/><text fill="#000000" font-family="sans-serif" font-size="14.4" lengthAdjust="spacingAndGlyphs" textLength="36" x="55.8" y="463.8609">Roue</text><line style="stroke: #2F4F4F; stroke-width: 1.7999999999999998;" x1="22.2" x2="94.2" y1="477.1688" y2="477.1688"/><line style="stroke: #2F4F4F; stroke-width: 1.7999999999999998;" x1="22.2" x2="94.2" y1="486.7687" y2="486.7687"/><!--MD5=[4337fef93a4164fb5e17f09a2ace23d6]
class Personne--><rect fill="#F8E7C0" filter="url(#f2rj79wpm8jd5)" height="90.8062" id="Personne" style="stroke: #2F4F4F; stroke-width: 1.7999999999999998;" width="103.2" x="137.4" y="421.9688"/><ellipse cx="155.4" cy="441.1688" fill="#ADD1B2" rx="13.2" ry="13.2" style="stroke: #2F4F4F; stroke-width: 1.2;"/><path d="M157.8,436.9688 Q158.0438,436.3688 158.325,436.0687 Q158.6063,435.7688 158.925,435.7688 Q159.4875,435.7688 159.8438,436.1063 Q160.2,436.4437 160.2,437.2313 L160.2,439.1063 Q160.2,439.8938 159.8625,440.2313 Q159.525,440.5687 159,440.5687 Q158.5313,440.5687 158.2313,440.3625 Q157.9313,440.1563 157.8,439.6125 Q157.7438,439.2375 157.5375,439.0313 Q157.1625,438.6375 156.4875,438.4125 Q155.8125,438.1688 155.1375,438.1688 Q154.2938,438.1688 153.5812,438.5062 Q152.8875,438.8438 152.3438,439.5938 Q151.8,440.3438 151.8,441.375 L151.8,442.4813 Q151.8,443.7188 152.8125,444.5438 Q153.825,445.3688 155.625,445.3688 Q156.6938,445.3688 157.4438,445.125 Q157.875,444.9938 158.3625,444.5625 Q158.6813,444.3187 158.85,444.2438 Q159.0187,444.1688 159.225,444.1688 Q159.6188,444.1688 159.9,444.4875 Q160.2,444.7875 160.2,445.2188 Q160.2,445.6312 159.7875,446.1188 Q159.1875,446.8313 158.2313,447.225 Q156.975,447.7688 155.4375,447.7688 Q153.6375,447.7688 152.1938,447.0563 Q151.0313,446.4938 150.2062,445.275 Q149.4,444.0563 149.4,442.6125 L149.4,441.3 Q149.4,439.8 150.1125,438.4875 Q150.8438,437.175 152.1,436.4813 Q153.375,435.7688 154.8,435.7688 Q155.6625,435.7688 156.4125,436.0687 Q157.1625,436.3688 157.8,436.9688 Z "/><text fill="#000000" font-family="sans-serif" font-size="14.4" lengthAdjust="spacingAndGlyphs" textLength="64.8" x="172.2" y="447.0609">Personne</text><line style="stroke: #2F4F4F; stroke-width: 1.7999999999999998;" x1="138.6" x2="239.4" y1="460.3688" y2="460.3688"/><ellipse cx="150.6" cy="473.5687" fill="none" rx="3.6" ry="3.6" style="stroke: #038048; stroke-width: 1.2;"/><text fill="#000000" font-family="sans-serif" font-size="13.2" lengthAdjust="spacingAndGlyphs" textLength="48" x="161.4" y="478.8715">adresse</text><ellipse cx="150.6" cy="490.1719" fill="none" rx="3.6" ry="3.6" style="stroke: #038048; stroke-width: 1.2;"/><text fill="#000000" font-family="sans-serif" font-size="13.2" lengthAdjust="spacingAndGlyphs" textLength="10.8" x="161.4" y="495.4746">...</text><line style="stroke: #2F4F4F; stroke-width: 1.7999999999999998;" x1="138.6" x2="239.4" y1="503.175" y2="503.175"/><!--MD5=[5c188155ef6002b341376efb6423e925]
reverse link Voiture to Roue--><path d="M58.2,231.2791 C58.2,231.2791 58.2,438.4292 58.2,438.4292 " fill="none" id="Voiture&lt;-Roue" style="stroke: #2F4F4F; stroke-width: 1.2;"/><polygon fill="#FFFFFF" points="58.2,215.6791,53.4,222.8791,58.2,230.0791,63,222.8791,58.2,215.6791" style="stroke: #2F4F4F; stroke-width: 1.2;"/><text fill="#000000" font-family="sans-serif" font-size="15.6" lengthAdjust="spacingAndGlyphs" textLength="8.4" x="48.7237" y="425.5503">4</text><!--MD5=[881ff5f8a22073347ec13cbabc70f65a]
link Voiture to Personne--><path d="M182.1,215.6791 C182.1,215.6791 182.1,406.1516 182.1,406.1516 " fill="none" id="Voiture-&gt;Personne" style="stroke: #2F4F4F; stroke-width: 1.2;"/><polygon fill="#FFFFFF" points="182.1,421.7516,186.9,414.5516,182.1,407.3516,177.3,414.5516,182.1,421.7516" style="stroke: #2F4F4F; stroke-width: 1.2;"/><polygon fill="#000000" points="225.6,319.9688,229.2,312.7688,232.8,319.9688,225.6,319.9688" style="stroke: #000000; stroke-width: 1.2;"/><text fill="#000000" font-family="sans-serif" font-size="15.6" lengthAdjust="spacingAndGlyphs" textLength="108" x="177" y="339.7629">est propriétraire</text><text fill="#000000" font-family="sans-serif" font-size="15.6" lengthAdjust="spacingAndGlyphs" textLength="26.4" x="151.8403" y="241.6249">0..n</text><text fill="#000000" font-family="sans-serif" font-size="15.6" lengthAdjust="spacingAndGlyphs" textLength="26.4" x="152.1197" y="408.9471">0..1</text><!--MD5=[af2e4682ab77947c2a5cb713a37b9411]
reverse link Country to Region--><path d="M564.6,198.3331 C564.6,198.3331 564.6,288.26 564.6,288.26 " fill="none" id="Country&lt;-Region" style="stroke: #2F4F4F; stroke-width: 1.2;"/><polygon fill="#2F4F4F" points="564.6,182.7331,559.8,189.9331,564.6,197.1331,569.4,189.9331,564.6,182.7331" style="stroke: #2F4F4F; stroke-width: 1.2;"/><!--MD5=[bd232f107ad7ed0ea1aaa09b2db27d41]
reverse link Utilisateur to Role--><path d="M189,794.2616 C189,794.2616 189,851.2408 189,851.2408 " fill="none" id="Utilisateur&lt;-Role" style="stroke: #2F4F4F; stroke-width: 1.2;"/><polygon fill="#FFFFFF" points="189,778.6616,184.2,785.8616,189,793.0616,193.8,785.8616,189,778.6616" style="stroke: #2F4F4F; stroke-width: 1.2;"/><text fill="#000000" font-family="sans-serif" font-size="15.6" lengthAdjust="spacingAndGlyphs" textLength="6" x="182.5219" y="803.7649">*</text><text fill="#000000" font-family="sans-serif" font-size="15.6" lengthAdjust="spacingAndGlyphs" textLength="6" x="182.2313" y="838.3649">*</text><!--MD5=[77d652e6652c943694089626b6902d73]
link Personne to Utilisateur--><path d="M189,513.4604 C189,513.4604 189,662.9948 189,662.9948 " fill="none" id="Personne-&gt;Utilisateur" style="stroke: #2F4F4F; stroke-width: 1.2;"/><polygon fill="none" points="197.4,662.9948,189,686.9948,180.6,662.9948,197.4,662.9948" style="stroke: #2F4F4F; stroke-width: 1.2;"/><!--MD5=[7fcab12ddabf46d957a7e129f9eb3e7b]
@startuml

title
Cars - Class diagram
end title

skinparam class {
	BackgroundColor STRATEGY
	ArrowColor DarkSlateGray
	BorderColor DarkSlateGray
}

skinparam linetype ortho

class Voiture {
    + id : int
    + brand : String
    + model : String
    + mpg : double
    getLitersPer100Kilometers() : String
}

class Roue {
}

class Personne {
    + adresse
    + ...
}

Voiture          o- - - "4"     Roue
Voiture "0..n  " - - -o "0..1"  Personne : "< est propriétraire"

package cities {
    class Country {
        + language : Language
    }
    class Region {
    }
    enum Language {
        FR
        EN
    }
    Country *- - Region
}

package auth {
    class Utilisateur {
        + username
        + password
    }
    class Role {
    }
    Utilisateur "*" o- - "*" Role
    Personne - - -|> Utilisateur
}

@enduml

PlantUML version 1.2020.07(Sun Apr 19 13:42:40 CEST 2020)
(GPL source distribution)
Java Runtime: OpenJDK Runtime Environment
JVM: OpenJDK 64-Bit Server VM
Java Version: 11.0.6+8-b765.38
Operating System: Windows 10
Default Encoding: Cp1252
Language: en
Country: US
--></g></svg>