<?xml version="1.0" encoding="UTF-8" standalone="no"?><svg xmlns="http://www.w3.org/2000/svg" xmlns:xlink="http://www.w3.org/1999/xlink" contentScriptType="application/ecmascript" contentStyleType="text/css" height="409.2px" preserveAspectRatio="none" style="width:370px;height:409px;" version="1.1" viewBox="0 0 370 409" width="370.8px" zoomAndPan="magnify"><defs><filter height="300%" id="f1oq8zi54jmp5n" width="300%" x="-1" y="-1"><feGaussianBlur result="blurOut" stdDeviation="2.4"/><feColorMatrix in="blurOut" result="blurOut2" type="matrix" values="0 0 0 0 0 0 0 0 0 0 0 0 0 0 0 0 0 0 .4 0"/><feOffset dx="4.8" dy="4.8" in="blurOut2" result="blurOut3"/><feBlend in="SourceGraphic" in2="blurOut3" mode="normal"/></filter></defs><g><text fill="#000000" font-family="sans-serif" font-size="21.6" lengthAdjust="spacingAndGlyphs" textLength="201.6" x="89.4" y="22.4227">Cars - Class diagram</text><!--MD5=[1d3308a050e4b472ad871965582028ae]
class Voiture--><rect fill="#F8E7C0" filter="url(#f1oq8zi54jmp5n)" height="140.6156" id="Voiture" style="stroke: #2F4F4F; stroke-width: 1.7999999999999998;" width="219.6" x="7.2" y="36.7688"/><ellipse cx="89.1" cy="55.9688" fill="#ADD1B2" rx="13.2" ry="13.2" style="stroke: #2F4F4F; stroke-width: 1.2;"/><path d="M91.5,51.7688 Q91.7437,51.1687 92.025,50.8688 Q92.3062,50.5688 92.625,50.5688 Q93.1875,50.5688 93.5438,50.9063 Q93.9,51.2438 93.9,52.0313 L93.9,53.9063 Q93.9,54.6938 93.5625,55.0313 Q93.225,55.3688 92.7,55.3688 Q92.2313,55.3688 91.9312,55.1625 Q91.6313,54.9563 91.5,54.4125 Q91.4438,54.0375 91.2375,53.8313 Q90.8625,53.4375 90.1875,53.2125 Q89.5125,52.9688 88.8375,52.9688 Q87.9937,52.9688 87.2813,53.3063 Q86.5875,53.6438 86.0438,54.3938 Q85.5,55.1438 85.5,56.175 L85.5,57.2813 Q85.5,58.5188 86.5125,59.3438 Q87.525,60.1687 89.325,60.1687 Q90.3938,60.1687 91.1438,59.925 Q91.575,59.7937 92.0625,59.3625 Q92.3813,59.1188 92.55,59.0437 Q92.7188,58.9688 92.925,58.9688 Q93.3188,58.9688 93.6,59.2875 Q93.9,59.5875 93.9,60.0188 Q93.9,60.4313 93.4875,60.9187 Q92.8875,61.6312 91.9312,62.025 Q90.675,62.5687 89.1375,62.5687 Q87.3375,62.5687 85.8938,61.8562 Q84.7313,61.2937 83.9063,60.075 Q83.1,58.8562 83.1,57.4125 L83.1,56.1 Q83.1,54.6 83.8125,53.2875 Q84.5438,51.975 85.8,51.2813 Q87.075,50.5688 88.5,50.5688 Q89.3625,50.5688 90.1125,50.8688 Q90.8625,51.1687 91.5,51.7688 Z "/><text fill="#000000" font-family="sans-serif" font-size="14.4" lengthAdjust="spacingAndGlyphs" textLength="45.6" x="113.7" y="61.8609">Voiture</text><line style="stroke: #2F4F4F; stroke-width: 1.7999999999999998;" x1="8.4" x2="225.6" y1="75.1688" y2="75.1688"/><ellipse cx="20.4" cy="88.3687" fill="none" rx="3.6" ry="3.6" style="stroke: #038048; stroke-width: 1.2;"/><text fill="#000000" font-family="sans-serif" font-size="13.2" lengthAdjust="spacingAndGlyphs" textLength="33.6" x="31.2" y="93.6715">id : int</text><ellipse cx="20.4" cy="104.9719" fill="none" rx="3.6" ry="3.6" style="stroke: #038048; stroke-width: 1.2;"/><text fill="#000000" font-family="sans-serif" font-size="13.2" lengthAdjust="spacingAndGlyphs" textLength="78" x="31.2" y="110.2746">brand : String</text><ellipse cx="20.4" cy="121.575" fill="none" rx="3.6" ry="3.6" style="stroke: #038048; stroke-width: 1.2;"/><text fill="#000000" font-family="sans-serif" font-size="13.2" lengthAdjust="spacingAndGlyphs" textLength="78" x="31.2" y="126.8777">model : String</text><ellipse cx="20.4" cy="138.1781" fill="none" rx="3.6" ry="3.6" style="stroke: #038048; stroke-width: 1.2;"/><text fill="#000000" font-family="sans-serif" font-size="13.2" lengthAdjust="spacingAndGlyphs" textLength="73.2" x="31.2" y="143.4809">mpg : double</text><line style="stroke: #2F4F4F; stroke-width: 1.7999999999999998;" x1="8.4" x2="225.6" y1="151.1813" y2="151.1813"/><text fill="#000000" font-family="sans-serif" font-size="13.2" lengthAdjust="spacingAndGlyphs" textLength="205.2" x="14.4" y="169.684">getLitersPer100Kilometers() : String</text><!--MD5=[bfaa0cf1c94f172be725c75ad56c3fba]
class Publication--><rect fill="#F8E7C0" filter="url(#f1oq8zi54jmp5n)" height="74.2031" id="Publication" style="stroke: #2F4F4F; stroke-width: 1.7999999999999998;" width="123.6" x="55.2" y="322.3688"/><ellipse cx="78.6" cy="341.5687" fill="#ADD1B2" rx="13.2" ry="13.2" style="stroke: #2F4F4F; stroke-width: 1.2;"/><path d="M81,337.3688 Q81.2437,336.7688 81.525,336.4688 Q81.8062,336.1688 82.125,336.1688 Q82.6875,336.1688 83.0438,336.5062 Q83.4,336.8438 83.4,337.6312 L83.4,339.5062 Q83.4,340.2938 83.0625,340.6312 Q82.725,340.9688 82.2,340.9688 Q81.7313,340.9688 81.4312,340.7625 Q81.1313,340.5563 81,340.0125 Q80.9438,339.6375 80.7375,339.4313 Q80.3625,339.0375 79.6875,338.8125 Q79.0125,338.5687 78.3375,338.5687 Q77.4937,338.5687 76.7813,338.9063 Q76.0875,339.2438 75.5438,339.9938 Q75,340.7438 75,341.775 L75,342.8812 Q75,344.1188 76.0125,344.9437 Q77.025,345.7688 78.825,345.7688 Q79.8938,345.7688 80.6438,345.525 Q81.075,345.3938 81.5625,344.9625 Q81.8813,344.7188 82.05,344.6438 Q82.2188,344.5687 82.425,344.5687 Q82.8188,344.5687 83.1,344.8875 Q83.4,345.1875 83.4,345.6188 Q83.4,346.0313 82.9875,346.5188 Q82.3875,347.2313 81.4312,347.625 Q80.175,348.1688 78.6375,348.1688 Q76.8375,348.1688 75.3938,347.4563 Q74.2313,346.8938 73.4063,345.675 Q72.6,344.4563 72.6,343.0125 L72.6,341.7 Q72.6,340.2 73.3125,338.8875 Q74.0438,337.575 75.3,336.8812 Q76.575,336.1688 78,336.1688 Q78.8625,336.1688 79.6125,336.4688 Q80.3625,336.7688 81,337.3688 Z "/><text fill="#000000" font-family="sans-serif" font-size="14.4" lengthAdjust="spacingAndGlyphs" textLength="73.2" x="96.6" y="347.4609">Publication</text><line style="stroke: #2F4F4F; stroke-width: 1.7999999999999998;" x1="56.4" x2="177.6" y1="360.7688" y2="360.7688"/><ellipse cx="68.4" cy="373.9688" fill="none" rx="3.6" ry="3.6" style="stroke: #038048; stroke-width: 1.2;"/><text fill="#000000" font-family="sans-serif" font-size="13.2" lengthAdjust="spacingAndGlyphs" textLength="92.4" x="79.2" y="379.2715">langue : Langue</text><line style="stroke: #2F4F4F; stroke-width: 1.7999999999999998;" x1="56.4" x2="177.6" y1="386.9719" y2="386.9719"/><!--MD5=[81149741744057d27013e2177320517d]
class Langue--><rect fill="#F8E7C0" filter="url(#f1oq8zi54jmp5n)" height="90.8062" id="Langue" style="stroke: #2F4F4F; stroke-width: 1.7999999999999998;" width="88.8" x="269.4" y="61.3688"/><ellipse cx="287.4" cy="80.5688" fill="#EB937F" rx="13.2" ry="13.2" style="stroke: #2F4F4F; stroke-width: 1.2;"/><path d="M285.6,81.7688 L285.6,84.1688 L290.4,84.1688 L290.4,82.9688 L290.4,82.3875 L291.15,81.7688 L291.6,81.7688 L292.05,81.7688 L292.8,82.3875 L292.8,82.9688 L292.8,86.5688 L283.2,86.5688 L282.6188,86.5688 L282,85.8188 L282,85.3687 L282,84.9188 L282.6188,84.1688 L283.2,84.1688 L283.2,84.1688 L283.2,76.9688 L283.2,76.9688 L282.6188,76.9688 L282,76.2188 L282,75.7688 L282,75.3188 L282.6188,74.5688 L283.2,74.5688 L292.8,74.5688 L292.8,78.1688 L292.8,78.75 L292.05,79.3687 L291.6,79.3687 L291.15,79.3687 L290.4,78.75 L290.4,78.1688 L290.4,76.9688 L285.6,76.9688 L285.6,79.3687 L286.8,79.3687 L286.8,78.7875 L286.8,78.7875 L287.55,78.1688 L288,78.1688 L288.45,78.1688 L289.2,78.7875 L289.2,79.3687 L289.2,81.7688 L289.2,82.35 L288.45,82.9688 L288.45,82.9688 L288,82.9688 L287.55,82.9688 L286.8,82.35 L286.8,82.35 L286.8,81.7688 L285.6,81.7688 Z "/><text fill="#000000" font-family="sans-serif" font-size="14.4" lengthAdjust="spacingAndGlyphs" textLength="50.4" x="304.2" y="86.4609">Langue</text><line style="stroke: #2F4F4F; stroke-width: 1.7999999999999998;" x1="270.6" x2="357" y1="99.7688" y2="99.7688"/><text fill="#000000" font-family="sans-serif" font-size="13.2" lengthAdjust="spacingAndGlyphs" textLength="15.6" x="276.6" y="118.2715">FR</text><text fill="#000000" font-family="sans-serif" font-size="13.2" lengthAdjust="spacingAndGlyphs" textLength="15.6" x="276.6" y="134.8746">EN</text><line style="stroke: #2F4F4F; stroke-width: 1.7999999999999998;" x1="270.6" x2="357" y1="142.575" y2="142.575"/><!--MD5=[653284a5f84ebe9aff3f29de9265c684]
link Voiture to Publication--><path d="M117,177.3319 C117,177.3319 117,306.7265 117,306.7265 " fill="none" id="Voiture-&gt;Publication" style="stroke: #2F4F4F; stroke-width: 1.2;"/><polygon fill="#FFFFFF" points="117,322.3265,121.8,315.1265,117,307.9265,112.2,315.1265,117,322.3265" style="stroke: #2F4F4F; stroke-width: 1.2;"/><text fill="#000000" font-family="sans-serif" font-size="15.6" lengthAdjust="spacingAndGlyphs" textLength="24" x="91.5375" y="203.2842">0..*</text><text fill="#000000" font-family="sans-serif" font-size="15.6" lengthAdjust="spacingAndGlyphs" textLength="24" x="90.375" y="309.1416">0..*</text><!--MD5=[f60c985bba2b1ea1b5ae2ecc92a8a098]
@startuml


title
Cars - Class diagram
end title

skinparam class {
	BackgroundColor STRATEGY
	ArrowColor DarkSlateGray
	BorderColor DarkSlateGray
}

skinparam linetype ortho

class Voiture {
    + id : int
    + brand : String
    + model : String
    + mpg : double
    getLitersPer100Kilometers() : String
}

class Publication {
    + langue : Langue
}

enum Langue {
    FR
    EN
}

Voiture "0..*" - - -o "0..*" Publication

@enduml

PlantUML version 1.2020.07(Sun Apr 19 13:42:40 CEST 2020)
(GPL source distribution)
Java Runtime: OpenJDK Runtime Environment
JVM: OpenJDK 64-Bit Server VM
Java Version: 11.0.6+8-b765.38
Operating System: Windows 10
Default Encoding: Cp1252
Language: en
Country: US
--></g></svg>