<?xml version="1.0" encoding="UTF-8" standalone="no"?><svg xmlns="http://www.w3.org/2000/svg" xmlns:xlink="http://www.w3.org/1999/xlink" contentScriptType="application/ecmascript" contentStyleType="text/css" height="1108px" preserveAspectRatio="none" style="width:990px;height:1108px;" version="1.1" viewBox="0 0 990 1108" width="990px" zoomAndPan="magnify"><defs><filter height="300%" id="fossvva20ioyp" width="300%" x="-1" y="-1"><feGaussianBlur result="blurOut" stdDeviation="4.0"/><feColorMatrix in="blurOut" result="blurOut2" type="matrix" values="0 0 0 0 0 0 0 0 0 0 0 0 0 0 0 0 0 0 .4 0"/><feOffset dx="8.0" dy="8.0" in="blurOut2" result="blurOut3"/><feBlend in="SourceGraphic" in2="blurOut3" mode="normal"/></filter></defs><g><text fill="#000000" font-family="sans-serif" font-size="36" lengthAdjust="spacingAndGlyphs" textLength="470" x="263" y="57.3711">Cars - Step 09 - Authorization</text><rect fill="#FFFFFF" filter="url(#fossvva20ioyp)" height="147.4063" style="stroke: #2F4F4F; stroke-width: 2.0;" width="20" x="760" y="217.2031"/><rect fill="#FFFFFF" filter="url(#fossvva20ioyp)" height="147.4063" style="stroke: #2F4F4F; stroke-width: 2.0;" width="20" x="760" y="425.3125"/><rect fill="#FFFFFF" filter="url(#fossvva20ioyp)" height="147.4063" style="stroke: #2F4F4F; stroke-width: 2.0;" width="20" x="760" y="633.4219"/><rect fill="#FFFFFF" filter="url(#fossvva20ioyp)" height="147.4063" style="stroke: #2F4F4F; stroke-width: 2.0;" width="20" x="760" y="841.5313"/><line style="stroke: #2F4F4F; stroke-width: 2.0; stroke-dasharray: 5.0,5.0;" x1="70" x2="70" y1="152.5" y2="1024.9375"/><line style="stroke: #2F4F4F; stroke-width: 2.0; stroke-dasharray: 5.0,5.0;" x1="770" x2="770" y1="152.5" y2="1024.9375"/><rect fill="#F8E7C0" filter="url(#fossvva20ioyp)" height="63.2188" style="stroke: #2F4F4F; stroke-width: 3.0;" width="100" x="16" y="79.2813"/><text fill="#000000" font-family="sans-serif" font-size="28" lengthAdjust="spacingAndGlyphs" textLength="72" x="30" y="122.3477">Client</text><rect fill="#F8E7C0" filter="url(#fossvva20ioyp)" height="63.2188" style="stroke: #2F4F4F; stroke-width: 3.0;" width="100" x="16" y="1022.9375"/><text fill="#000000" font-family="sans-serif" font-size="28" lengthAdjust="spacingAndGlyphs" textLength="72" x="30" y="1066.0039">Client</text><rect fill="#F8E7C0" filter="url(#fossvva20ioyp)" height="63.2188" style="stroke: #2F4F4F; stroke-width: 3.0;" width="112" x="710" y="79.2813"/><text fill="#000000" font-family="sans-serif" font-size="28" lengthAdjust="spacingAndGlyphs" textLength="84" x="724" y="122.3477">Server</text><rect fill="#F8E7C0" filter="url(#fossvva20ioyp)" height="63.2188" style="stroke: #2F4F4F; stroke-width: 3.0;" width="112" x="710" y="1022.9375"/><text fill="#000000" font-family="sans-serif" font-size="28" lengthAdjust="spacingAndGlyphs" textLength="84" x="724" y="1066.0039">Server</text><rect fill="#FFFFFF" filter="url(#fossvva20ioyp)" height="147.4063" style="stroke: #2F4F4F; stroke-width: 2.0;" width="20" x="760" y="217.2031"/><rect fill="#FFFFFF" filter="url(#fossvva20ioyp)" height="147.4063" style="stroke: #2F4F4F; stroke-width: 2.0;" width="20" x="760" y="425.3125"/><rect fill="#FFFFFF" filter="url(#fossvva20ioyp)" height="147.4063" style="stroke: #2F4F4F; stroke-width: 2.0;" width="20" x="760" y="633.4219"/><rect fill="#FFFFFF" filter="url(#fossvva20ioyp)" height="147.4063" style="stroke: #2F4F4F; stroke-width: 2.0;" width="20" x="760" y="841.5313"/><polygon fill="#2F4F4F" points="736,209.2031,756,217.2031,736,225.2031,744,217.2031" style="stroke: #2F4F4F; stroke-width: 2.0;"/><line style="stroke: #2F4F4F; stroke-width: 2.0;" x1="70" x2="748" y1="217.2031" y2="217.2031"/><text fill="#000000" font-family="sans-serif" font-size="26" lengthAdjust="spacingAndGlyphs" textLength="138" x="84" y="207.4902">GET "/cars"</text><line style="stroke: #2F4F4F; stroke-width: 2.0;" x1="780" x2="864" y1="277.9063" y2="277.9063"/><line style="stroke: #2F4F4F; stroke-width: 2.0;" x1="864" x2="864" y1="277.9063" y2="303.9063"/><line style="stroke: #2F4F4F; stroke-width: 2.0;" x1="782" x2="864" y1="303.9063" y2="303.9063"/><polygon fill="#2F4F4F" points="802,295.9063,782,303.9063,802,311.9063,794,303.9063" style="stroke: #2F4F4F; stroke-width: 2.0;"/><text fill="#000000" font-family="sans-serif" font-size="26" lengthAdjust="spacingAndGlyphs" textLength="118" x="794" y="268.1934">permitAll()</text><polygon fill="#2F4F4F" points="92,356.6094,72,364.6094,92,372.6094,84,364.6094" style="stroke: #2F4F4F; stroke-width: 2.0;"/><line style="stroke: #2F4F4F; stroke-width: 2.0;" x1="80" x2="768" y1="364.6094" y2="364.6094"/><text fill="#000000" font-family="sans-serif" font-size="26" lengthAdjust="spacingAndGlyphs" textLength="42" x="104" y="354.8965">200</text><polygon fill="#2F4F4F" points="736,417.3125,756,425.3125,736,433.3125,744,425.3125" style="stroke: #2F4F4F; stroke-width: 2.0;"/><line style="stroke: #2F4F4F; stroke-width: 2.0;" x1="70" x2="748" y1="425.3125" y2="425.3125"/><text fill="#000000" font-family="sans-serif" font-size="26" lengthAdjust="spacingAndGlyphs" textLength="156" x="84" y="415.5996">POST "/cars"</text><line style="stroke: #2F4F4F; stroke-width: 2.0;" x1="780" x2="864" y1="486.0156" y2="486.0156"/><line style="stroke: #2F4F4F; stroke-width: 2.0;" x1="864" x2="864" y1="486.0156" y2="512.0156"/><line style="stroke: #2F4F4F; stroke-width: 2.0;" x1="782" x2="864" y1="512.0156" y2="512.0156"/><polygon fill="#2F4F4F" points="802,504.0156,782,512.0156,802,520.0156,794,512.0156" style="stroke: #2F4F4F; stroke-width: 2.0;"/><text fill="#000000" font-family="sans-serif" font-size="26" lengthAdjust="spacingAndGlyphs" textLength="172" x="794" y="476.3027">authenticated()</text><polygon fill="#2F4F4F" points="92,564.7188,72,572.7188,92,580.7188,84,572.7188" style="stroke: #2F4F4F; stroke-width: 2.0;"/><line style="stroke: #2F4F4F; stroke-width: 2.0;" x1="80" x2="768" y1="572.7188" y2="572.7188"/><text fill="#000000" font-family="sans-serif" font-size="26" lengthAdjust="spacingAndGlyphs" textLength="42" x="104" y="563.0059">401</text><polygon fill="#2F4F4F" points="736,625.4219,756,633.4219,736,641.4219,744,633.4219" style="stroke: #2F4F4F; stroke-width: 2.0;"/><line style="stroke: #2F4F4F; stroke-width: 2.0;" x1="70" x2="748" y1="633.4219" y2="633.4219"/><text fill="#000000" font-family="sans-serif" font-size="26" lengthAdjust="spacingAndGlyphs" textLength="622" x="84" y="623.709">POST "/cars", Headers: { "Authorization": "Basic ..." }</text><line style="stroke: #2F4F4F; stroke-width: 2.0;" x1="780" x2="864" y1="694.125" y2="694.125"/><line style="stroke: #2F4F4F; stroke-width: 2.0;" x1="864" x2="864" y1="694.125" y2="720.125"/><line style="stroke: #2F4F4F; stroke-width: 2.0;" x1="782" x2="864" y1="720.125" y2="720.125"/><polygon fill="#2F4F4F" points="802,712.125,782,720.125,802,728.125,794,720.125" style="stroke: #2F4F4F; stroke-width: 2.0;"/><text fill="#000000" font-family="sans-serif" font-size="26" lengthAdjust="spacingAndGlyphs" textLength="172" x="794" y="684.4121">authenticated()</text><polygon fill="#2F4F4F" points="92,772.8281,72,780.8281,92,788.8281,84,780.8281" style="stroke: #2F4F4F; stroke-width: 2.0;"/><line style="stroke: #2F4F4F; stroke-width: 2.0;" x1="80" x2="768" y1="780.8281" y2="780.8281"/><text fill="#000000" font-family="sans-serif" font-size="26" lengthAdjust="spacingAndGlyphs" textLength="42" x="104" y="771.1152">200</text><polygon fill="#2F4F4F" points="736,833.5313,756,841.5313,736,849.5313,744,841.5313" style="stroke: #2F4F4F; stroke-width: 2.0;"/><line style="stroke: #2F4F4F; stroke-width: 2.0;" x1="70" x2="748" y1="841.5313" y2="841.5313"/><text fill="#000000" font-family="sans-serif" font-size="26" lengthAdjust="spacingAndGlyphs" textLength="652" x="84" y="831.8184">DELETE "/cars", Headers: { "Authorization": "Basic ..." }</text><line style="stroke: #2F4F4F; stroke-width: 2.0;" x1="780" x2="864" y1="902.2344" y2="902.2344"/><line style="stroke: #2F4F4F; stroke-width: 2.0;" x1="864" x2="864" y1="902.2344" y2="928.2344"/><line style="stroke: #2F4F4F; stroke-width: 2.0;" x1="782" x2="864" y1="928.2344" y2="928.2344"/><polygon fill="#2F4F4F" points="802,920.2344,782,928.2344,802,936.2344,794,928.2344" style="stroke: #2F4F4F; stroke-width: 2.0;"/><text fill="#000000" font-family="sans-serif" font-size="26" lengthAdjust="spacingAndGlyphs" textLength="172" x="794" y="892.5215">authenticated()</text><polygon fill="#2F4F4F" points="92,980.9375,72,988.9375,92,996.9375,84,988.9375" style="stroke: #2F4F4F; stroke-width: 2.0;"/><line style="stroke: #2F4F4F; stroke-width: 2.0;" x1="80" x2="768" y1="988.9375" y2="988.9375"/><text fill="#000000" font-family="sans-serif" font-size="26" lengthAdjust="spacingAndGlyphs" textLength="42" x="104" y="979.2246">200</text><!--MD5=[0665756e7fa5cd3eedd9eb272061ea17]
@startuml

title
Cars - Step 09 - Authorization
end title

skinparam sequence {
	BackgroundColor STRATEGY
	ParticipantBackgroundColor STRATEGY
	ArrowColor DarkSlateGray
	BorderColor DarkSlateGray
	LifeLineBorderColor DarkSlateGray
	ParticipantBorderColor DarkSlateGray
}

Client -> Server: GET "/cars"
activate Server
Server -> Server: permitAll()
Server -> Client: 200
deactivate Server

Client -> Server: POST "/cars"
activate Server
Server -> Server: authenticated()
Server -> Client: 401
deactivate Server

Client -> Server: POST "/cars", Headers: { "Authorization": "Basic ..." }
activate Server
Server -> Server: authenticated()
Server -> Client: 200
deactivate Server

Client -> Server: DELETE "/cars", Headers: { "Authorization": "Basic ..." }
activate Server
Server -> Server: authenticated()
Server -> Client: 200
deactivate Server

@enduml

PlantUML version 1.2020.07(Sun Apr 19 13:42:40 CEST 2020)
(GPL source distribution)
Java Runtime: OpenJDK Runtime Environment
JVM: OpenJDK 64-Bit Server VM
Java Version: 11.0.6+8-b765.38
Operating System: Windows 10
Default Encoding: Cp1252
Language: en
Country: US
--></g></svg>