<?xml version="1.0" encoding="UTF-8" standalone="no"?><svg xmlns="http://www.w3.org/2000/svg" xmlns:xlink="http://www.w3.org/1999/xlink" contentScriptType="application/ecmascript" contentStyleType="text/css" height="722px" preserveAspectRatio="none" style="width:488px;height:722px;" version="1.1" viewBox="0 0 488 722" width="488px" zoomAndPan="magnify"><defs><filter height="300%" id="f1k86wydzwuic7" width="300%" x="-1" y="-1"><feGaussianBlur result="blurOut" stdDeviation="4.0"/><feColorMatrix in="blurOut" result="blurOut2" type="matrix" values="0 0 0 0 0 0 0 0 0 0 0 0 0 0 0 0 0 0 .4 0"/><feOffset dx="8.0" dy="8.0" in="blurOut2" result="blurOut3"/><feBlend in="SourceGraphic" in2="blurOut3" mode="normal"/></filter></defs><g><text fill="#000000" font-family="sans-serif" font-size="36" lengthAdjust="spacingAndGlyphs" textLength="336" x="83" y="37.3711">Cars - Class diagram</text><!--MD5=[3f0ef310aaa84a542276992c5216544d]
class Car--><rect fill="#F8E7C0" filter="url(#f1k86wydzwuic7)" height="179.0156" id="Car" style="stroke: #2F4F4F; stroke-width: 3.0;" width="182" x="140" y="61.2813"/><ellipse cx="205.1" cy="93.2813" fill="#ADD1B2" rx="22" ry="22" style="stroke: #2F4F4F; stroke-width: 2.0;"/><path d="M209.1,86.2813 Q209.5063,85.2813 209.975,84.7813 Q210.4438,84.2813 210.975,84.2813 Q211.9125,84.2813 212.5063,84.8438 Q213.1,85.4063 213.1,86.7188 L213.1,89.8438 Q213.1,91.1563 212.5375,91.7188 Q211.975,92.2813 211.1,92.2813 Q210.3188,92.2813 209.8188,91.9375 Q209.3188,91.5938 209.1,90.6875 Q209.0063,90.0625 208.6625,89.7188 Q208.0375,89.0625 206.9125,88.6875 Q205.7875,88.2813 204.6625,88.2813 Q203.2563,88.2813 202.0688,88.8438 Q200.9125,89.4063 200.0063,90.6563 Q199.1,91.9063 199.1,93.625 L199.1,95.4688 Q199.1,97.5313 200.7875,98.9063 Q202.475,100.2813 205.475,100.2813 Q207.2563,100.2813 208.5063,99.875 Q209.225,99.6563 210.0375,98.9375 Q210.5688,98.5313 210.85,98.4063 Q211.1313,98.2813 211.475,98.2813 Q212.1313,98.2813 212.6,98.8125 Q213.1,99.3125 213.1,100.0313 Q213.1,100.7188 212.4125,101.5313 Q211.4125,102.7188 209.8188,103.375 Q207.725,104.2813 205.1625,104.2813 Q202.1625,104.2813 199.7563,103.0938 Q197.8188,102.1563 196.4438,100.125 Q195.1,98.0938 195.1,95.6875 L195.1,93.5 Q195.1,91 196.2875,88.8125 Q197.5063,86.625 199.6,85.4688 Q201.725,84.2813 204.1,84.2813 Q205.5375,84.2813 206.7875,84.7813 Q208.0375,85.2813 209.1,86.2813 Z "/><text fill="#000000" font-family="sans-serif" font-size="24" lengthAdjust="spacingAndGlyphs" textLength="40" x="240.9" y="103.1016">Car</text><line style="stroke: #2F4F4F; stroke-width: 3.0;" x1="142" x2="320" y1="125.2813" y2="125.2813"/><ellipse cx="162" cy="147.2813" fill="none" rx="6" ry="6" style="stroke: #038048; stroke-width: 2.0;"/><text fill="#000000" font-family="sans-serif" font-size="22" lengthAdjust="spacingAndGlyphs" textLength="56" x="180" y="156.1191">id : int</text><ellipse cx="162" cy="174.9531" fill="none" rx="6" ry="6" style="stroke: #038048; stroke-width: 2.0;"/><text fill="#000000" font-family="sans-serif" font-size="22" lengthAdjust="spacingAndGlyphs" textLength="130" x="180" y="183.791">brand : String</text><ellipse cx="162" cy="202.625" fill="none" rx="6" ry="6" style="stroke: #038048; stroke-width: 2.0;"/><text fill="#000000" font-family="sans-serif" font-size="22" lengthAdjust="spacingAndGlyphs" textLength="130" x="180" y="211.4629">model : String</text><line style="stroke: #2F4F4F; stroke-width: 3.0;" x1="142" x2="320" y1="224.2969" y2="224.2969"/><!--MD5=[08d6a551530ab71b272f9c2c40bfb385]
class Owner--><rect fill="#F8E7C0" filter="url(#f1k86wydzwuic7)" height="151.3438" id="Owner" style="stroke: #2F4F4F; stroke-width: 3.0;" width="178" x="12" y="535.2813"/><ellipse cx="60.9" cy="567.2813" fill="#ADD1B2" rx="22" ry="22" style="stroke: #2F4F4F; stroke-width: 2.0;"/><path d="M64.9,560.2813 Q65.3063,559.2813 65.775,558.7813 Q66.2438,558.2813 66.775,558.2813 Q67.7125,558.2813 68.3063,558.8438 Q68.9,559.4063 68.9,560.7188 L68.9,563.8438 Q68.9,565.1563 68.3375,565.7188 Q67.775,566.2813 66.9,566.2813 Q66.1188,566.2813 65.6188,565.9375 Q65.1188,565.5938 64.9,564.6875 Q64.8063,564.0625 64.4625,563.7188 Q63.8375,563.0625 62.7125,562.6875 Q61.5875,562.2813 60.4625,562.2813 Q59.0563,562.2813 57.8688,562.8438 Q56.7125,563.4063 55.8063,564.6563 Q54.9,565.9063 54.9,567.625 L54.9,569.4688 Q54.9,571.5313 56.5875,572.9063 Q58.275,574.2813 61.275,574.2813 Q63.0563,574.2813 64.3063,573.875 Q65.025,573.6563 65.8375,572.9375 Q66.3688,572.5313 66.65,572.4063 Q66.9313,572.2813 67.275,572.2813 Q67.9313,572.2813 68.4,572.8125 Q68.9,573.3125 68.9,574.0313 Q68.9,574.7188 68.2125,575.5313 Q67.2125,576.7188 65.6188,577.375 Q63.525,578.2813 60.9625,578.2813 Q57.9625,578.2813 55.5563,577.0938 Q53.6188,576.1563 52.2438,574.125 Q50.9,572.0938 50.9,569.6875 L50.9,567.5 Q50.9,565 52.0875,562.8125 Q53.3063,560.625 55.4,559.4688 Q57.525,558.2813 59.9,558.2813 Q61.3375,558.2813 62.5875,558.7813 Q63.8375,559.2813 64.9,560.2813 Z "/><text fill="#000000" font-family="sans-serif" font-size="24" lengthAdjust="spacingAndGlyphs" textLength="72" x="93.1" y="577.1016">Owner</text><line style="stroke: #2F4F4F; stroke-width: 3.0;" x1="14" x2="188" y1="599.2813" y2="599.2813"/><ellipse cx="34" cy="621.2813" fill="none" rx="6" ry="6" style="stroke: #038048; stroke-width: 2.0;"/><text fill="#000000" font-family="sans-serif" font-size="22" lengthAdjust="spacingAndGlyphs" textLength="56" x="52" y="630.1191">id : int</text><ellipse cx="34" cy="648.9531" fill="none" rx="6" ry="6" style="stroke: #038048; stroke-width: 2.0;"/><text fill="#000000" font-family="sans-serif" font-size="22" lengthAdjust="spacingAndGlyphs" textLength="126" x="52" y="657.791">name : String</text><line style="stroke: #2F4F4F; stroke-width: 3.0;" x1="14" x2="188" y1="670.625" y2="670.625"/><!--MD5=[f19fcc2dc4f0556aeb4f3f202c94122f]
class Dealership--><rect fill="#F8E7C0" filter="url(#f1k86wydzwuic7)" height="179.0156" id="Dealership" style="stroke: #2F4F4F; stroke-width: 3.0;" width="206" x="260" y="521.2813"/><ellipse cx="299" cy="553.2813" fill="#ADD1B2" rx="22" ry="22" style="stroke: #2F4F4F; stroke-width: 2.0;"/><path d="M303,546.2813 Q303.4063,545.2813 303.875,544.7813 Q304.3438,544.2813 304.875,544.2813 Q305.8125,544.2813 306.4063,544.8438 Q307,545.4063 307,546.7188 L307,549.8438 Q307,551.1563 306.4375,551.7188 Q305.875,552.2813 305,552.2813 Q304.2188,552.2813 303.7188,551.9375 Q303.2188,551.5938 303,550.6875 Q302.9063,550.0625 302.5625,549.7188 Q301.9375,549.0625 300.8125,548.6875 Q299.6875,548.2813 298.5625,548.2813 Q297.1563,548.2813 295.9688,548.8438 Q294.8125,549.4063 293.9063,550.6563 Q293,551.9063 293,553.625 L293,555.4688 Q293,557.5313 294.6875,558.9063 Q296.375,560.2813 299.375,560.2813 Q301.1563,560.2813 302.4063,559.875 Q303.125,559.6563 303.9375,558.9375 Q304.4688,558.5313 304.75,558.4063 Q305.0313,558.2813 305.375,558.2813 Q306.0313,558.2813 306.5,558.8125 Q307,559.3125 307,560.0313 Q307,560.7188 306.3125,561.5313 Q305.3125,562.7188 303.7188,563.375 Q301.625,564.2813 299.0625,564.2813 Q296.0625,564.2813 293.6563,563.0938 Q291.7188,562.1563 290.3438,560.125 Q289,558.0938 289,555.6875 L289,553.5 Q289,551 290.1875,548.8125 Q291.4063,546.625 293.5,545.4688 Q295.625,544.2813 298,544.2813 Q299.4375,544.2813 300.6875,544.7813 Q301.9375,545.2813 303,546.2813 Z "/><text fill="#000000" font-family="sans-serif" font-size="24" lengthAdjust="spacingAndGlyphs" textLength="122" x="329" y="563.1016">Dealership</text><line style="stroke: #2F4F4F; stroke-width: 3.0;" x1="262" x2="464" y1="585.2813" y2="585.2813"/><ellipse cx="282" cy="607.2813" fill="none" rx="6" ry="6" style="stroke: #038048; stroke-width: 2.0;"/><text fill="#000000" font-family="sans-serif" font-size="22" lengthAdjust="spacingAndGlyphs" textLength="56" x="300" y="616.1191">id : int</text><ellipse cx="282" cy="634.9531" fill="none" rx="6" ry="6" style="stroke: #038048; stroke-width: 2.0;"/><text fill="#000000" font-family="sans-serif" font-size="22" lengthAdjust="spacingAndGlyphs" textLength="126" x="300" y="643.791">name : String</text><ellipse cx="282" cy="662.625" fill="none" rx="6" ry="6" style="stroke: #038048; stroke-width: 2.0;"/><text fill="#000000" font-family="sans-serif" font-size="22" lengthAdjust="spacingAndGlyphs" textLength="154" x="300" y="671.4629">address : String</text><line style="stroke: #2F4F4F; stroke-width: 3.0;" x1="262" x2="464" y1="684.2969" y2="684.2969"/><!--MD5=[afa2026ce3326969cb5517c3a7a58e21]
link Car to Owner--><path d="M165,241.6133 C165,241.6133 165,508.881 165,508.881 " fill="none" id="Car-&gt;Owner" style="stroke: #2F4F4F; stroke-width: 2.0;"/><polygon fill="#2F4F4F" points="165,534.8811,173,522.8811,165,510.881,157,522.8811,165,534.8811" style="stroke: #2F4F4F; stroke-width: 2.0;"/><polygon fill="#000000" points="124,385.2813,130,373.2813,136,385.2813,124,385.2813" style="stroke: #000000; stroke-width: 2.0;"/><text fill="#000000" font-family="sans-serif" font-size="26" lengthAdjust="spacingAndGlyphs" textLength="60" x="103" y="418.2715">owns</text><text fill="#000000" font-family="sans-serif" font-size="26" lengthAdjust="spacingAndGlyphs" textLength="40" x="113.4438" y="283.0052">0..*</text><text fill="#000000" font-family="sans-serif" font-size="26" lengthAdjust="spacingAndGlyphs" textLength="44" x="128.4813" y="513.5336">0..1</text><!--MD5=[0ccb018c4f55103b7b8843f1c13fb52a]
link Car to Dealership--><path d="M291,241.6133 C291,241.6133 291,495.1553 291,495.1553 " fill="none" id="Car-&gt;Dealership" style="stroke: #2F4F4F; stroke-width: 2.0;"/><polygon fill="#2F4F4F" points="291,521.1555,299,509.1555,291,497.1555,283,509.1555,291,521.1555" style="stroke: #2F4F4F; stroke-width: 2.0;"/><polygon fill="#000000" points="383,385.2813,389,373.2813,395,385.2813,383,385.2813" style="stroke: #000000; stroke-width: 2.0;"/><text fill="#000000" font-family="sans-serif" font-size="26" lengthAdjust="spacingAndGlyphs" textLength="54" x="365" y="418.2715">sells</text><text fill="#000000" font-family="sans-serif" font-size="26" lengthAdjust="spacingAndGlyphs" textLength="40" x="256.375" y="283.0052">0..*</text><text fill="#000000" font-family="sans-serif" font-size="26" lengthAdjust="spacingAndGlyphs" textLength="40" x="236.3375" y="499.3661">0..*</text><!--MD5=[af93b807c1f8f5b1550e9e35be5f2214]
@startuml

title
Cars - Class diagram
end title

skinparam class {
	BackgroundColor STRATEGY
	ArrowColor DarkSlateGray
	BorderColor DarkSlateGray
}

skinparam linetype ortho

class Car {
    + id : int
    + brand : String
    + model : String
}

class Owner {
    + id : int
    + name : String
}

class Dealership {
    + id : int
    + name : String
    + address : String
}

Car "0..*"  - - -*  "0..1" Owner      : "< owns"
Car "0..*"  - - -*  "0..*" Dealership : "< sells"

@enduml

PlantUML version 1.2020.07(Sun Apr 19 13:42:40 CEST 2020)
(GPL source distribution)
Java Runtime: OpenJDK Runtime Environment
JVM: OpenJDK 64-Bit Server VM
Java Version: 11.0.6+8-b765.38
Operating System: Windows 10
Default Encoding: Cp1252
Language: en
Country: US
--></g></svg>