<?xml version="1.0" encoding="UTF-8" standalone="no"?><svg xmlns="http://www.w3.org/2000/svg" xmlns:xlink="http://www.w3.org/1999/xlink" contentScriptType="application/ecmascript" contentStyleType="text/css" height="279.3px" preserveAspectRatio="none" style="width:837px;height:279px;" version="1.1" viewBox="0 0 837 279" width="837.9px" zoomAndPan="magnify"><defs><filter height="300%" id="f1idck47y29k3q" width="300%" x="-1" y="-1"><feGaussianBlur result="blurOut" stdDeviation="4.2"/><feColorMatrix in="blurOut" result="blurOut2" type="matrix" values="0 0 0 0 0 0 0 0 0 0 0 0 0 0 0 0 0 0 .4 0"/><feOffset dx="8.4" dy="8.4" in="blurOut2" result="blurOut3"/><feBlend in="SourceGraphic" in2="blurOut3" mode="normal"/></filter></defs><g><!--MD5=[3f0ef310aaa84a542276992c5216544d]
class Car--><rect fill="#FFFFFF" filter="url(#f1idck47y29k3q)" height="187.9664" id="Car" style="stroke: #2F4F4F; stroke-width: 3.1500000000000004;" width="191.1" x="12.6" y="69.3"/><ellipse cx="80.955" cy="102.9" fill="#ADD1B2" rx="23.1" ry="23.1" style="stroke: #2F4F4F; stroke-width: 2.1;"/><path d="M85.155,95.55 Q85.5816,94.5 86.0738,93.975 Q86.5659,93.45 87.1238,93.45 Q88.1081,93.45 88.7316,94.0406 Q89.355,94.6313 89.355,96.0094 L89.355,99.2906 Q89.355,100.6688 88.7644,101.2594 Q88.1738,101.85 87.255,101.85 Q86.4347,101.85 85.9097,101.4891 Q85.3847,101.1281 85.155,100.1766 Q85.0566,99.5203 84.6956,99.1594 Q84.0394,98.4703 82.8581,98.0766 Q81.6769,97.65 80.4956,97.65 Q79.0191,97.65 77.7722,98.2406 Q76.5581,98.8313 75.6066,100.1438 Q74.655,101.4563 74.655,103.2609 L74.655,105.1969 Q74.655,107.3625 76.4269,108.8063 Q78.1988,110.25 81.3488,110.25 Q83.2191,110.25 84.5316,109.8234 Q85.2863,109.5938 86.1394,108.8391 Q86.6972,108.4125 86.9925,108.2813 Q87.2878,108.15 87.6487,108.15 Q88.3378,108.15 88.83,108.7078 Q89.355,109.2328 89.355,109.9875 Q89.355,110.7094 88.6331,111.5625 Q87.5831,112.8094 85.9097,113.4984 Q83.7112,114.45 81.0206,114.45 Q77.8706,114.45 75.3441,113.2031 Q73.3097,112.2188 71.8659,110.0859 Q70.455,107.9531 70.455,105.4266 L70.455,103.1297 Q70.455,100.5047 71.7019,98.2078 Q72.9816,95.9109 75.18,94.6969 Q77.4113,93.45 79.905,93.45 Q81.4144,93.45 82.7269,93.975 Q84.0394,94.5 85.155,95.55 Z "/><text fill="#000000" font-family="sans-serif" font-size="25.2" lengthAdjust="spacingAndGlyphs" textLength="42" x="118.545" y="113.2113">Car</text><line style="stroke: #2F4F4F; stroke-width: 3.1500000000000004;" x1="14.7" x2="201.6" y1="136.5" y2="136.5"/><ellipse cx="35.7" cy="159.6" fill="none" rx="6.3" ry="6.3" style="stroke: #038048; stroke-width: 2.1;"/><text fill="#000000" font-family="sans-serif" font-size="23.1" lengthAdjust="spacingAndGlyphs" textLength="58.8" x="54.6" y="168.8798">id : int</text><ellipse cx="35.7" cy="188.6555" fill="none" rx="6.3" ry="6.3" style="stroke: #038048; stroke-width: 2.1;"/><text fill="#000000" font-family="sans-serif" font-size="23.1" lengthAdjust="spacingAndGlyphs" textLength="136.5" x="54.6" y="197.9353">brand : String</text><ellipse cx="35.7" cy="217.7109" fill="none" rx="6.3" ry="6.3" style="stroke: #038048; stroke-width: 2.1;"/><text fill="#000000" font-family="sans-serif" font-size="23.1" lengthAdjust="spacingAndGlyphs" textLength="136.5" x="54.6" y="226.9907">model : String</text><line style="stroke: #2F4F4F; stroke-width: 3.1500000000000004;" x1="14.7" x2="201.6" y1="240.4664" y2="240.4664"/><!--MD5=[08d6a551530ab71b272f9c2c40bfb385]
class Owner--><rect fill="#FFFFFF" filter="url(#f1idck47y29k3q)" height="158.9109" id="Owner" style="stroke: #2F4F4F; stroke-width: 3.1500000000000004;" width="186.9" x="627.9" y="84"/><ellipse cx="679.245" cy="117.6" fill="#ADD1B2" rx="23.1" ry="23.1" style="stroke: #2F4F4F; stroke-width: 2.1;"/><path d="M683.445,110.25 Q683.8716,109.2 684.3638,108.675 Q684.8559,108.15 685.4138,108.15 Q686.3981,108.15 687.0216,108.7406 Q687.645,109.3313 687.645,110.7094 L687.645,113.9906 Q687.645,115.3688 687.0544,115.9594 Q686.4638,116.55 685.545,116.55 Q684.7247,116.55 684.1997,116.1891 Q683.6747,115.8281 683.445,114.8766 Q683.3466,114.2203 682.9856,113.8594 Q682.3294,113.1703 681.1481,112.7766 Q679.9669,112.35 678.7856,112.35 Q677.3091,112.35 676.0622,112.9406 Q674.8481,113.5313 673.8966,114.8438 Q672.945,116.1563 672.945,117.9609 L672.945,119.8969 Q672.945,122.0625 674.7169,123.5063 Q676.4888,124.95 679.6388,124.95 Q681.5091,124.95 682.8216,124.5234 Q683.5763,124.2938 684.4294,123.5391 Q684.9872,123.1125 685.2825,122.9813 Q685.5778,122.85 685.9388,122.85 Q686.6278,122.85 687.12,123.4078 Q687.645,123.9328 687.645,124.6875 Q687.645,125.4094 686.9231,126.2625 Q685.8731,127.5094 684.1997,128.1984 Q682.0013,129.15 679.3106,129.15 Q676.1606,129.15 673.6341,127.9031 Q671.5997,126.9188 670.1559,124.7859 Q668.745,122.6531 668.745,120.1266 L668.745,117.8297 Q668.745,115.2047 669.9919,112.9078 Q671.2716,110.6109 673.47,109.3969 Q675.7013,108.15 678.195,108.15 Q679.7044,108.15 681.0169,108.675 Q682.3294,109.2 683.445,110.25 Z "/><text fill="#000000" font-family="sans-serif" font-size="25.2" lengthAdjust="spacingAndGlyphs" textLength="75.6" x="713.055" y="127.9113">Owner</text><line style="stroke: #2F4F4F; stroke-width: 3.1500000000000004;" x1="630" x2="812.7" y1="151.2" y2="151.2"/><ellipse cx="651" cy="174.3" fill="none" rx="6.3" ry="6.3" style="stroke: #038048; stroke-width: 2.1;"/><text fill="#000000" font-family="sans-serif" font-size="23.1" lengthAdjust="spacingAndGlyphs" textLength="58.8" x="669.9" y="183.5798">id : int</text><ellipse cx="651" cy="203.3555" fill="none" rx="6.3" ry="6.3" style="stroke: #038048; stroke-width: 2.1;"/><text fill="#000000" font-family="sans-serif" font-size="23.1" lengthAdjust="spacingAndGlyphs" textLength="132.3" x="669.9" y="212.6353">name : String</text><line style="stroke: #2F4F4F; stroke-width: 3.1500000000000004;" x1="630" x2="812.7" y1="226.1109" y2="226.1109"/><!--MD5=[f19fcc2dc4f0556aeb4f3f202c94122f]
class Dealership--><rect fill="#FFFFFF" filter="url(#f1idck47y29k3q)" height="187.9664" id="Dealership" style="stroke: #2F4F4F; stroke-width: 3.1500000000000004;" width="216.3" x="338.1" y="69.3"/><ellipse cx="379.05" cy="102.9" fill="#ADD1B2" rx="23.1" ry="23.1" style="stroke: #2F4F4F; stroke-width: 2.1;"/><path d="M383.25,95.55 Q383.6766,94.5 384.1688,93.975 Q384.6609,93.45 385.2188,93.45 Q386.2031,93.45 386.8266,94.0406 Q387.45,94.6313 387.45,96.0094 L387.45,99.2906 Q387.45,100.6688 386.8594,101.2594 Q386.2688,101.85 385.35,101.85 Q384.5297,101.85 384.0047,101.4891 Q383.4797,101.1281 383.25,100.1766 Q383.1516,99.5203 382.7906,99.1594 Q382.1344,98.4703 380.9531,98.0766 Q379.7719,97.65 378.5906,97.65 Q377.1141,97.65 375.8672,98.2406 Q374.6531,98.8313 373.7016,100.1438 Q372.75,101.4563 372.75,103.2609 L372.75,105.1969 Q372.75,107.3625 374.5219,108.8063 Q376.2938,110.25 379.4438,110.25 Q381.3141,110.25 382.6266,109.8234 Q383.3813,109.5938 384.2344,108.8391 Q384.7922,108.4125 385.0875,108.2813 Q385.3828,108.15 385.7438,108.15 Q386.4328,108.15 386.925,108.7078 Q387.45,109.2328 387.45,109.9875 Q387.45,110.7094 386.7281,111.5625 Q385.6781,112.8094 384.0047,113.4984 Q381.8063,114.45 379.1156,114.45 Q375.9656,114.45 373.4391,113.2031 Q371.4047,112.2188 369.9609,110.0859 Q368.55,107.9531 368.55,105.4266 L368.55,103.1297 Q368.55,100.5047 369.7969,98.2078 Q371.0766,95.9109 373.275,94.6969 Q375.5063,93.45 378,93.45 Q379.5094,93.45 380.8219,93.975 Q382.1344,94.5 383.25,95.55 Z "/><text fill="#000000" font-family="sans-serif" font-size="25.2" lengthAdjust="spacingAndGlyphs" textLength="128.1" x="410.55" y="113.2113">Dealership</text><line style="stroke: #2F4F4F; stroke-width: 3.1500000000000004;" x1="340.2" x2="552.3" y1="136.5" y2="136.5"/><ellipse cx="361.2" cy="159.6" fill="none" rx="6.3" ry="6.3" style="stroke: #038048; stroke-width: 2.1;"/><text fill="#000000" font-family="sans-serif" font-size="23.1" lengthAdjust="spacingAndGlyphs" textLength="58.8" x="380.1" y="168.8798">id : int</text><ellipse cx="361.2" cy="188.6555" fill="none" rx="6.3" ry="6.3" style="stroke: #038048; stroke-width: 2.1;"/><text fill="#000000" font-family="sans-serif" font-size="23.1" lengthAdjust="spacingAndGlyphs" textLength="132.3" x="380.1" y="197.9353">name : String</text><ellipse cx="361.2" cy="217.7109" fill="none" rx="6.3" ry="6.3" style="stroke: #038048; stroke-width: 2.1;"/><text fill="#000000" font-family="sans-serif" font-size="23.1" lengthAdjust="spacingAndGlyphs" textLength="161.7" x="380.1" y="226.9907">address : String</text><line style="stroke: #2F4F4F; stroke-width: 3.1500000000000004;" x1="340.2" x2="552.3" y1="240.4664" y2="240.4664"/><!--MD5=[1ab279178455c8415b3c8d9f27d61e84]
reverse link Car to Owner--><path d="M227.8689,83.5527 C262.0464,64.7936 300.3063,47.4747 338.1,37.8 C431.2287,13.9566 463.2453,7.2618 554.4,37.8 C583.6677,47.6049 611.9043,64.7892 636.5688,83.3721 " fill="none" id="Car&lt;-Owner" style="stroke: #2F4F4F; stroke-width: 2.1;"/><polygon fill="#2F4F4F" points="203.7689,97.3783,218.878,98.395,225.6278,84.8392,210.5186,83.8224,203.7689,97.3783" style="stroke: #2F4F4F; stroke-width: 2.1;"/><text fill="#000000" font-family="sans-serif" font-size="27.3" lengthAdjust="spacingAndGlyphs" textLength="14.7" x="605.4579" y="60.9202">1</text><!--MD5=[0ccb018c4f55103b7b8843f1c13fb52a]
link Car to Dealership--><path d="M229.3316,163.8 C229.3316,163.8 312.3204,163.8 312.3204,163.8 " fill="none" id="Car-Dealership" style="stroke: #2F4F4F; stroke-width: 2.1;"/><polygon fill="#2F4F4F" points="337.5204,163.8,324.9204,155.4,312.3204,163.8,324.9204,172.2,337.5204,163.8" style="stroke: #2F4F4F; stroke-width: 2.1;"/><polygon fill="#2F4F4F" points="204.1316,163.8,216.7316,172.2,229.3316,163.8,216.7316,155.4,204.1316,163.8" style="stroke: #2F4F4F; stroke-width: 2.1;"/><text fill="#000000" font-family="sans-serif" font-size="27.3" lengthAdjust="spacingAndGlyphs" textLength="56.7" x="242.55" y="150.1397">sells</text><text fill="#000000" font-family="sans-serif" font-size="27.3" lengthAdjust="spacingAndGlyphs" textLength="10.5" x="220.2653" y="156.0034">*</text><text fill="#000000" font-family="sans-serif" font-size="27.3" lengthAdjust="spacingAndGlyphs" textLength="10.5" x="310.992" y="156.3018">*</text><!--MD5=[efcd53faff9012ffb612259d4b8bf4e0]
@startuml

skinparam class {
	BackgroundColor White
	ArrowColor DarkSlateGray
	BorderColor DarkSlateGray
}

class Car {
    + id : int
    + brand : String
    + model : String
}

class Owner {
    + id : int
    + name : String
}

class Dealership {
    + id : int
    + name : String
    + address : String
}

Car *- "1" Owner
Car "*" *-* "*" Dealership : sells

@enduml

PlantUML version 1.2020.03beta6(Unknown compile time)
(GPL source distribution)
Java Runtime: OpenJDK Runtime Environment
JVM: OpenJDK 64-Bit Server VM
Java Version: 11.0.6+8-b765.15
Operating System: Windows 10
Default Encoding: Cp1252
Language: en
Country: US
--></g></svg>