<?xml version="1.0" encoding="UTF-8" standalone="no"?><svg xmlns="http://www.w3.org/2000/svg" xmlns:xlink="http://www.w3.org/1999/xlink" contentScriptType="application/ecmascript" contentStyleType="text/css" height="195px" preserveAspectRatio="none" style="width:498px;height:195px;" version="1.1" viewBox="0 0 498 195" width="498.75px" zoomAndPan="magnify"><defs><filter height="300%" id="f1gugt3goc4lo9" width="300%" x="-1" y="-1"><feGaussianBlur result="blurOut" stdDeviation="2.5"/><feColorMatrix in="blurOut" result="blurOut2" type="matrix" values="0 0 0 0 0 0 0 0 0 0 0 0 0 0 0 0 0 0 .4 0"/><feOffset dx="5.0" dy="5.0" in="blurOut2" result="blurOut3"/><feBlend in="SourceGraphic" in2="blurOut3" mode="normal"/></filter></defs><g><text fill="#000000" font-family="sans-serif" font-size="22.5" lengthAdjust="spacingAndGlyphs" textLength="231.25" x="138.125" y="23.3569">Cars - Step 08 - Owner</text><!--MD5=[3f0ef310aaa84a542276992c5216544d]
class Car--><rect fill="#FFFFFF" filter="url(#f1gugt3goc4lo9)" height="111.8848" id="Car" style="stroke: #2F4F4F; stroke-width: 1.875;" width="113.75" x="7.5" y="69.5508"/><ellipse cx="48.1875" cy="89.5508" fill="#ADD1B2" rx="13.75" ry="13.75" style="stroke: #2F4F4F; stroke-width: 1.25;"/><path d="M50.6875,85.1758 Q50.9414,84.5508 51.2344,84.2383 Q51.5273,83.9258 51.8594,83.9258 Q52.4453,83.9258 52.8164,84.2773 Q53.1875,84.6289 53.1875,85.4492 L53.1875,87.4023 Q53.1875,88.2227 52.8359,88.5742 Q52.4844,88.9258 51.9375,88.9258 Q51.4492,88.9258 51.1367,88.7109 Q50.8242,88.4961 50.6875,87.9297 Q50.6289,87.5391 50.4141,87.3242 Q50.0234,86.9141 49.3203,86.6797 Q48.6172,86.4258 47.9141,86.4258 Q47.0352,86.4258 46.293,86.7773 Q45.5703,87.1289 45.0039,87.9102 Q44.4375,88.6914 44.4375,89.7656 L44.4375,90.918 Q44.4375,92.207 45.4922,93.0664 Q46.5469,93.9258 48.4219,93.9258 Q49.5352,93.9258 50.3164,93.6719 Q50.7656,93.5352 51.2734,93.0859 Q51.6055,92.832 51.7813,92.7539 Q51.957,92.6758 52.1719,92.6758 Q52.582,92.6758 52.875,93.0078 Q53.1875,93.3203 53.1875,93.7695 Q53.1875,94.1992 52.7578,94.707 Q52.1328,95.4492 51.1367,95.8594 Q49.8281,96.4258 48.2266,96.4258 Q46.3516,96.4258 44.8477,95.6836 Q43.6367,95.0977 42.7773,93.8281 Q41.9375,92.5586 41.9375,91.0547 L41.9375,89.6875 Q41.9375,88.125 42.6797,86.7578 Q43.4414,85.3906 44.75,84.668 Q46.0781,83.9258 47.5625,83.9258 Q48.4609,83.9258 49.2422,84.2383 Q50.0234,84.5508 50.6875,85.1758 Z "/><text fill="#000000" font-family="sans-serif" font-size="15" lengthAdjust="spacingAndGlyphs" textLength="25" x="70.5625" y="95.6885">Car</text><line style="stroke: #2F4F4F; stroke-width: 1.875;" x1="8.75" x2="120" y1="109.5508" y2="109.5508"/><ellipse cx="21.25" cy="123.3008" fill="none" rx="3.75" ry="3.75" style="stroke: #038048; stroke-width: 1.25;"/><text fill="#000000" font-family="sans-serif" font-size="13.75" lengthAdjust="spacingAndGlyphs" textLength="35" x="32.5" y="128.8245">id : int</text><ellipse cx="21.25" cy="140.5957" fill="none" rx="3.75" ry="3.75" style="stroke: #038048; stroke-width: 1.25;"/><text fill="#000000" font-family="sans-serif" font-size="13.75" lengthAdjust="spacingAndGlyphs" textLength="81.25" x="32.5" y="146.1194">brand : String</text><ellipse cx="21.25" cy="157.8906" fill="none" rx="3.75" ry="3.75" style="stroke: #038048; stroke-width: 1.25;"/><text fill="#000000" font-family="sans-serif" font-size="13.75" lengthAdjust="spacingAndGlyphs" textLength="81.25" x="32.5" y="163.4143">model : String</text><line style="stroke: #2F4F4F; stroke-width: 1.875;" x1="8.75" x2="120" y1="171.4355" y2="171.4355"/><!--MD5=[08d6a551530ab71b272f9c2c40bfb385]
class Owner--><rect fill="#FFFFFF" filter="url(#f1gugt3goc4lo9)" height="94.5898" id="Owner" style="stroke: #2F4F4F; stroke-width: 1.875;" width="111.25" x="373.75" y="78.3008"/><ellipse cx="404.3125" cy="98.3008" fill="#ADD1B2" rx="13.75" ry="13.75" style="stroke: #2F4F4F; stroke-width: 1.25;"/><path d="M406.8125,93.9258 Q407.0664,93.3008 407.3594,92.9883 Q407.6523,92.6758 407.9844,92.6758 Q408.5703,92.6758 408.9414,93.0273 Q409.3125,93.3789 409.3125,94.1992 L409.3125,96.1523 Q409.3125,96.9727 408.9609,97.3242 Q408.6094,97.6758 408.0625,97.6758 Q407.5742,97.6758 407.2617,97.4609 Q406.9492,97.2461 406.8125,96.6797 Q406.7539,96.2891 406.5391,96.0742 Q406.1484,95.6641 405.4453,95.4297 Q404.7422,95.1758 404.0391,95.1758 Q403.1602,95.1758 402.418,95.5273 Q401.6953,95.8789 401.1289,96.6602 Q400.5625,97.4414 400.5625,98.5156 L400.5625,99.668 Q400.5625,100.957 401.6172,101.8164 Q402.6719,102.6758 404.5469,102.6758 Q405.6602,102.6758 406.4414,102.4219 Q406.8906,102.2852 407.3984,101.8359 Q407.7305,101.582 407.9063,101.5039 Q408.082,101.4258 408.2969,101.4258 Q408.707,101.4258 409,101.7578 Q409.3125,102.0703 409.3125,102.5195 Q409.3125,102.9492 408.8828,103.457 Q408.2578,104.1992 407.2617,104.6094 Q405.9531,105.1758 404.3516,105.1758 Q402.4766,105.1758 400.9727,104.4336 Q399.7617,103.8477 398.9023,102.5781 Q398.0625,101.3086 398.0625,99.8047 L398.0625,98.4375 Q398.0625,96.875 398.8047,95.5078 Q399.5664,94.1406 400.875,93.418 Q402.2031,92.6758 403.6875,92.6758 Q404.5859,92.6758 405.3672,92.9883 Q406.1484,93.3008 406.8125,93.9258 Z "/><text fill="#000000" font-family="sans-serif" font-size="15" lengthAdjust="spacingAndGlyphs" textLength="45" x="424.4375" y="104.4385">Owner</text><line style="stroke: #2F4F4F; stroke-width: 1.875;" x1="375" x2="483.75" y1="118.3008" y2="118.3008"/><ellipse cx="387.5" cy="132.0508" fill="none" rx="3.75" ry="3.75" style="stroke: #038048; stroke-width: 1.25;"/><text fill="#000000" font-family="sans-serif" font-size="13.75" lengthAdjust="spacingAndGlyphs" textLength="35" x="398.75" y="137.5745">id : int</text><ellipse cx="387.5" cy="149.3457" fill="none" rx="3.75" ry="3.75" style="stroke: #038048; stroke-width: 1.25;"/><text fill="#000000" font-family="sans-serif" font-size="13.75" lengthAdjust="spacingAndGlyphs" textLength="78.75" x="398.75" y="154.8694">name : String</text><line style="stroke: #2F4F4F; stroke-width: 1.875;" x1="375" x2="483.75" y1="162.8906" y2="162.8906"/><!--MD5=[f19fcc2dc4f0556aeb4f3f202c94122f]
class Dealership--><rect fill="#FFFFFF" filter="url(#f1gugt3goc4lo9)" height="111.8848" id="Dealership" style="stroke: #2F4F4F; stroke-width: 1.875;" width="128.75" x="201.25" y="69.5508"/><ellipse cx="225.625" cy="89.5508" fill="#ADD1B2" rx="13.75" ry="13.75" style="stroke: #2F4F4F; stroke-width: 1.25;"/><path d="M228.125,85.1758 Q228.3789,84.5508 228.6719,84.2383 Q228.9648,83.9258 229.2969,83.9258 Q229.8828,83.9258 230.2539,84.2773 Q230.625,84.6289 230.625,85.4492 L230.625,87.4023 Q230.625,88.2227 230.2734,88.5742 Q229.9219,88.9258 229.375,88.9258 Q228.8867,88.9258 228.5742,88.7109 Q228.2617,88.4961 228.125,87.9297 Q228.0664,87.5391 227.8516,87.3242 Q227.4609,86.9141 226.7578,86.6797 Q226.0547,86.4258 225.3516,86.4258 Q224.4727,86.4258 223.7305,86.7773 Q223.0078,87.1289 222.4414,87.9102 Q221.875,88.6914 221.875,89.7656 L221.875,90.918 Q221.875,92.207 222.9297,93.0664 Q223.9844,93.9258 225.8594,93.9258 Q226.9727,93.9258 227.7539,93.6719 Q228.2031,93.5352 228.7109,93.0859 Q229.043,92.832 229.2188,92.7539 Q229.3945,92.6758 229.6094,92.6758 Q230.0195,92.6758 230.3125,93.0078 Q230.625,93.3203 230.625,93.7695 Q230.625,94.1992 230.1953,94.707 Q229.5703,95.4492 228.5742,95.8594 Q227.2656,96.4258 225.6641,96.4258 Q223.7891,96.4258 222.2852,95.6836 Q221.0742,95.0977 220.2148,93.8281 Q219.375,92.5586 219.375,91.0547 L219.375,89.6875 Q219.375,88.125 220.1172,86.7578 Q220.8789,85.3906 222.1875,84.668 Q223.5156,83.9258 225,83.9258 Q225.8984,83.9258 226.6797,84.2383 Q227.4609,84.5508 228.125,85.1758 Z "/><text fill="#000000" font-family="sans-serif" font-size="15" lengthAdjust="spacingAndGlyphs" textLength="76.25" x="244.375" y="95.6885">Dealership</text><line style="stroke: #2F4F4F; stroke-width: 1.875;" x1="202.5" x2="328.75" y1="109.5508" y2="109.5508"/><ellipse cx="215" cy="123.3008" fill="none" rx="3.75" ry="3.75" style="stroke: #038048; stroke-width: 1.25;"/><text fill="#000000" font-family="sans-serif" font-size="13.75" lengthAdjust="spacingAndGlyphs" textLength="35" x="226.25" y="128.8245">id : int</text><ellipse cx="215" cy="140.5957" fill="none" rx="3.75" ry="3.75" style="stroke: #038048; stroke-width: 1.25;"/><text fill="#000000" font-family="sans-serif" font-size="13.75" lengthAdjust="spacingAndGlyphs" textLength="78.75" x="226.25" y="146.1194">name : String</text><ellipse cx="215" cy="157.8906" fill="none" rx="3.75" ry="3.75" style="stroke: #038048; stroke-width: 1.25;"/><text fill="#000000" font-family="sans-serif" font-size="13.75" lengthAdjust="spacingAndGlyphs" textLength="96.25" x="226.25" y="163.4143">address : String</text><line style="stroke: #2F4F4F; stroke-width: 1.875;" x1="202.5" x2="328.75" y1="171.4355" y2="171.4355"/><!--MD5=[1ab279178455c8415b3c8d9f27d61e84]
reverse link Car to Owner--><path d="M135.6363,78.0345 C155.98,66.8684 178.7537,56.5595 201.25,50.8008 C256.6838,36.6083 275.7413,32.6233 330,50.8008 C347.4213,56.637 364.2288,66.8658 378.91,77.927 " fill="none" id="Car&lt;-Owner" style="stroke: #2F4F4F; stroke-width: 1.25;"/><polygon fill="#2F4F4F" points="121.291,86.264,130.2845,86.8693,134.3023,78.8003,125.3087,78.1951,121.291,86.264" style="stroke: #2F4F4F; stroke-width: 1.25;"/><text fill="#000000" font-family="sans-serif" font-size="16.25" lengthAdjust="spacingAndGlyphs" textLength="8.75" x="360.3916" y="64.5628">1</text><!--MD5=[0ccb018c4f55103b7b8843f1c13fb52a]
link Car to Dealership--><path d="M136.5069,125.8008 C136.5069,125.8008 185.905,125.8008 185.905,125.8008 " fill="none" id="Car-Dealership" style="stroke: #2F4F4F; stroke-width: 1.25;"/><polygon fill="#2F4F4F" points="200.905,125.8008,193.405,120.8008,185.905,125.8008,193.405,130.8008,200.905,125.8008" style="stroke: #2F4F4F; stroke-width: 1.25;"/><polygon fill="#2F4F4F" points="121.5069,125.8008,129.0069,130.8008,136.5069,125.8008,129.0069,120.8008,121.5069,125.8008" style="stroke: #2F4F4F; stroke-width: 1.25;"/><text fill="#000000" font-family="sans-serif" font-size="16.25" lengthAdjust="spacingAndGlyphs" textLength="33.75" x="144.375" y="117.6697">sells</text><text fill="#000000" font-family="sans-serif" font-size="16.25" lengthAdjust="spacingAndGlyphs" textLength="6.25" x="131.1103" y="121.16">*</text><text fill="#000000" font-family="sans-serif" font-size="16.25" lengthAdjust="spacingAndGlyphs" textLength="6.25" x="185.1143" y="121.3376">*</text><!--MD5=[aca16ff5e1f5d0720484f2cc49ecfb25]
@startuml

title
Cars - Step 08 - Owner
end title

skinparam class {
	BackgroundColor White
	ArrowColor DarkSlateGray
	BorderColor DarkSlateGray
}

class Car {
    + id : int
    + brand : String
    + model : String
}

class Owner {
    + id : int
    + name : String
}

class Dealership {
    + id : int
    + name : String
    + address : String
}

Car *- "1" Owner
Car "*" *-* "*" Dealership : sells

@enduml

PlantUML version 1.2020.03beta6(Unknown compile time)
(GPL source distribution)
Java Runtime: OpenJDK Runtime Environment
JVM: OpenJDK 64-Bit Server VM
Java Version: 11.0.6+8-b765.25
Operating System: Windows 10
Default Encoding: Cp1252
Language: en
Country: US
--></g></svg>